<?xml version="1.0" encoding="UTF-8" standalone="no"?>
<svg xmlns="http://www.w3.org/2000/svg" xmlns:xlink="http://www.w3.org/1999/xlink" width="214.050mm" height="186.000mm" viewBox="-214.050018 0.000000 214.050018 186.000031">
    <path transform="matrix(1,-0,-0,-1,10.000007,194.600006)" style="stroke:#0000ff;stroke-width:0.050000mm;fill:none" d="M-17.1,149.399994L-15.2,149.399994L-15.2,146.600006L-19,146.600006L-19,149.399994L-17.1,149.399994z"/>
    <path transform="matrix(1,-0,-0,-1,10.000007,194.600006)" style="stroke:#0000ff;stroke-width:0.050000mm;fill:none" d="M-111.099998,146.600006L-113,146.600006L-113,149.399994L-109.199997,149.399994L-109.199997,146.600006L-111.099998,146.600006z"/>
    <path transform="matrix(1,-0,-0,-1,10.000007,194.600006)" style="stroke:#0000ff;stroke-width:0.050000mm;fill:none" d="M-126.800003,149.399994L-124.900002,149.399994L-124.900002,146.600006L-128.699997,146.600006L-128.699997,149.399994L-126.800003,149.399994z"/>
    <path transform="matrix(1,-0,-0,-1,10.000007,194.600006)" style="stroke:#0000ff;stroke-width:0.050000mm;fill:none" d="M-181.899994,146.600006L-183.800003,146.600006L-183.800003,149.399994L-180,149.399994L-180,146.600006L-181.899994,146.600006z"/>
    <path transform="matrix(1,-0,-0,-1,10.000007,194.600006)" style="stroke:#0000ff;stroke-width:0.050000mm;fill:none" d="M-17.1,96.699997L-15.2,96.699997L-15.2,93.900002L-19,93.900002L-19,96.699997L-17.1,96.699997z"/>
    <path transform="matrix(1,-0,-0,-1,10.000007,194.600006)" style="stroke:#0000ff;stroke-width:0.050000mm;fill:none" d="M-111.099998,93.900002L-113,93.900002L-113,96.699997L-109.199997,96.699997L-109.199997,93.900002L-111.099998,93.900002z"/>
    <rect transform="matrix(0.000003,1,1,-0.000003,-35.000004,159)" style="stroke:#ff0000;stroke-width:0.050000mm;fill:none" x="-12.5" y="-31" width="25" height="62"/>
    <path transform="matrix(1,-0,-0,-1,10.000007,194.600006)" style="stroke:#000000;stroke-width:0.050000mm;fill:none" d="M-13.1,89.199997L-19.1,89.199997C-19.155001,89.199997,-19.200001,89.154999,-19.200001,89.099998L-19.200001,86.199997L-25,86.199997L-25,89.099998C-25,89.154999,-25.045,89.199997,-25.1,89.199997L-31.1,89.199997C-31.155001,89.199997,-31.200001,89.154999,-31.200001,89.099998L-31.200001,86.199997L-37,86.199997L-37,89.099998C-37,89.154999,-37.044998,89.199997,-37.099998,89.199997L-43.099998,89.199997C-43.154999,89.199997,-43.200001,89.154999,-43.200001,89.099998L-43.200001,86.199997L-49,86.199997L-49,89.099998C-49,89.154999,-49.044998,89.199997,-49.099998,89.199997L-55.099998,89.199997C-55.154999,89.199997,-55.200001,89.154999,-55.200001,89.099998L-55.200001,86.199997L-61,86.199997L-61,89.099998C-61,89.154999,-61.044998,89.199997,-61.099998,89.199997L-67.099998,89.199997C-67.154999,89.199997,-67.199997,89.154999,-67.199997,89.099998L-67.199997,86.199997L-73,86.199997L-73,89.099998C-73,89.154999,-73.044998,89.199997,-73.099998,89.199997L-79.099998,89.199997C-79.154999,89.199997,-79.199997,89.154999,-79.199997,89.099998L-79.199997,86.199997L-85,86.199997L-85,89.099998C-85,89.154999,-85.044998,89.199997,-85.099998,89.199997L-91.099998,89.199997C-91.154999,89.199997,-91.199997,89.154999,-91.199997,89.099998L-91.199997,86.199997L-97,86.199997L-97,89.099998C-97,89.154999,-97.044998,89.199997,-97.099998,89.199997L-103.099998,89.199997C-103.154999,89.199997,-103.199997,89.154999,-103.199997,89.099998L-103.199997,86.199997L-109,86.199997L-109,89.099998C-109,89.154999,-109.044998,89.199997,-109.099998,89.199997L-115.099998,89.199997L-118.099998,89.199997C-118.154999,89.199997,-118.199997,89.154999,-118.199997,89.099998L-118.199997,86.099998L-118.199997,75.550003C-118.199997,75.495003,-118.154999,75.449997,-118.099998,75.449997L-115.199997,75.449997L-115.199997,69.650002L-118.099998,69.650002C-118.154999,69.650002,-118.199997,69.605003,-118.199997,69.550003L-118.199997,63.549999C-118.199997,63.494999,-118.154999,63.450001,-118.099998,63.450001L-115.199997,63.450001L-115.199997,57.650002L-118.099998,57.650002C-118.154999,57.650002,-118.199997,57.605,-118.199997,57.549999L-118.199997,51.549999C-118.199997,51.494999,-118.154999,51.450001,-118.099998,51.450001L-115.199997,51.450001L-115.199997,45.650002L-118.099998,45.650002C-118.154999,45.650002,-118.199997,45.605,-118.199997,45.549999L-118.199997,39.549999C-118.199997,39.494999,-118.154999,39.450001,-118.099998,39.450001L-115.199997,39.450001L-115.199997,33.650002L-118.099998,33.650002C-118.154999,33.650002,-118.199997,33.605,-118.199997,33.549999L-118.199997,23L-118.199997,20C-118.199997,19.945,-118.154999,19.9,-118.099998,19.9L-115.099998,19.9L-109.099998,19.9C-109.044998,19.9,-109,19.945,-109,20L-109,22.9L-103.199997,22.9L-103.199997,20C-103.199997,19.945,-103.154999,19.9,-103.099998,19.9L-97.099998,19.9C-97.044998,19.9,-97,19.945,-97,20L-97,22.9L-91.199997,22.9L-91.199997,20C-91.199997,19.945,-91.154999,19.9,-91.099998,19.9L-85.099998,19.9C-85.044998,19.9,-85,19.945,-85,20L-85,22.9L-79.199997,22.9L-79.199997,20C-79.199997,19.945,-79.154999,19.9,-79.099998,19.9L-73.099998,19.9C-73.044998,19.9,-73,19.945,-73,20L-73,22.9L-67.199997,22.9L-67.199997,20C-67.199997,19.945,-67.154999,19.9,-67.099998,19.9L-61.099998,19.9C-61.044998,19.9,-61,19.945,-61,20L-61,22.9L-55.200001,22.9L-55.200001,20C-55.200001,19.945,-55.154999,19.9,-55.099998,19.9L-49.099998,19.9C-49.044998,19.9,-49,19.945,-49,20L-49,22.9L-43.200001,22.9L-43.200001,20C-43.200001,19.945,-43.154999,19.9,-43.099998,19.9L-37.099998,19.9C-37.044998,19.9,-37,19.945,-37,20L-37,22.9L-31.200001,22.9L-31.200001,20C-31.200001,19.945,-31.155001,19.9,-31.1,19.9L-25.1,19.9C-25.045,19.9,-25,19.945,-25,20L-25,22.9L-19.200001,22.9L-19.200001,20C-19.200001,19.945,-19.155001,19.9,-19.1,19.9L-13.1,19.9L-10.1,19.9C-10.045,19.9,-10,19.945,-10,20L-10,23L-10,33.549999C-10,33.605,-10.045,33.650002,-10.1,33.650002L-13,33.650002L-13,39.450001L-10.1,39.450001C-10.045,39.450001,-10,39.494999,-10,39.549999L-10,45.549999C-10,45.605,-10.045,45.650002,-10.1,45.650002L-13,45.650002L-13,51.450001L-10.1,51.450001C-10.045,51.450001,-10,51.494999,-10,51.549999L-10,57.549999C-10,57.605,-10.045,57.650002,-10.1,57.650002L-13,57.650002L-13,63.450001L-10.1,63.450001C-10.045,63.450001,-10,63.494999,-10,63.549999L-10,69.550003C-10,69.605003,-10.045,69.650002,-10.1,69.650002L-13,69.650002L-13,75.449997L-10.1,75.449997C-10.045,75.449997,-10,75.495003,-10,75.550003L-10,86.099998L-10,89.099998C-10,89.154999,-10.045,89.199997,-10.1,89.199997L-13.1,89.199997z"/>
    <rect transform="matrix(1,-0,-0,-1,-54.100018,140.050049)" style="stroke:#0000ff;stroke-width:0.050000mm;fill:none" x="-2.65" y="-4.5" width="5.3" height="9"/>
    <rect transform="matrix(1,-0,-0,-1,-54.100021,136.600052)" style="stroke:#ff0000;stroke-width:0.050000mm;fill:none" x="-9" y="-9" width="18" height="18"/>
    <rect transform="matrix(1,-0,-0,-1,-73.300003,78.300034)" style="stroke:#ff0000;stroke-width:0.050000mm;fill:none" x="-25.5" y="-17" width="51" height="34"/>
    <rect transform="matrix(0.000001,1,1,-0.000001,-33.400009,78.300041)" style="stroke:#ff0000;stroke-width:0.050000mm;fill:none" x="-9.7" y="-8.9" width="19.4" height="17.799999"/>
    <path transform="matrix(1,-0,-0,-1,10.000007,194.600006)" style="stroke:#000000;stroke-width:0.050000mm;fill:none" d="M-13.1,191.600006L-19,191.600006L-19,194.5C-19,194.554993,-19.045,194.600006,-19.1,194.600006L-25.1,194.600006C-25.155001,194.600006,-25.200001,194.554993,-25.200001,194.5L-25.200001,191.600006L-31,191.600006L-31,194.5C-31,194.554993,-31.045,194.600006,-31.1,194.600006L-37.099998,194.600006C-37.154999,194.600006,-37.200001,194.554993,-37.200001,194.5L-37.200001,191.600006L-43,191.600006L-43,194.5C-43,194.554993,-43.044998,194.600006,-43.099998,194.600006L-49.099998,194.600006C-49.154999,194.600006,-49.200001,194.554993,-49.200001,194.5L-49.200001,191.600006L-55,191.600006L-55,194.5C-55,194.554993,-55.044998,194.600006,-55.099998,194.600006L-61.099998,194.600006C-61.154999,194.600006,-61.200001,194.554993,-61.200001,194.5L-61.200001,191.600006L-67,191.600006L-67,194.5C-67,194.554993,-67.044998,194.600006,-67.099998,194.600006L-73.099998,194.600006C-73.154999,194.600006,-73.199997,194.554993,-73.199997,194.5L-73.199997,191.600006L-79,191.600006L-79,194.5C-79,194.554993,-79.044998,194.600006,-79.099998,194.600006L-85.099998,194.600006C-85.154999,194.600006,-85.199997,194.554993,-85.199997,194.5L-85.199997,191.600006L-91,191.600006L-91,194.5C-91,194.554993,-91.044998,194.600006,-91.099998,194.600006L-97.099998,194.600006C-97.154999,194.600006,-97.199997,194.554993,-97.199997,194.5L-97.199997,191.600006L-103,191.600006L-103,194.5C-103,194.554993,-103.044998,194.600006,-103.099998,194.600006L-109.099998,194.600006C-109.154999,194.600006,-109.199997,194.554993,-109.199997,194.5L-109.199997,191.600006L-115.099998,191.600006L-118.099998,191.600006C-118.154999,191.600006,-118.199997,191.554993,-118.199997,191.5L-118.199997,182.5C-118.199997,182.445007,-118.154999,182.399994,-118.099998,182.399994L-115.199997,182.399994L-115.199997,176.600006L-118.099998,176.600006C-118.154999,176.600006,-118.199997,176.554993,-118.199997,176.5L-118.199997,170.5C-118.199997,170.445007,-118.154999,170.399994,-118.099998,170.399994L-115.199997,170.399994L-115.199997,164.600006L-118.099998,164.600006C-118.154999,164.600006,-118.199997,164.554993,-118.199997,164.5L-118.199997,158.5C-118.199997,158.445007,-118.154999,158.399994,-118.099998,158.399994L-115.199997,158.399994L-115.199997,152.600006L-118.099998,152.600006C-118.154999,152.600006,-118.199997,152.554993,-118.199997,152.5L-118.199997,143.5C-118.199997,143.445007,-118.154999,143.399994,-118.099998,143.399994L-115.099998,143.399994L-13.1,143.399994L-10.1,143.399994C-10.045,143.399994,-10,143.445007,-10,143.5L-10,152.5C-10,152.554993,-10.045,152.600006,-10.1,152.600006L-13,152.600006L-13,158.399994L-10.1,158.399994C-10.045,158.399994,-10,158.445007,-10,158.5L-10,164.5C-10,164.554993,-10.045,164.600006,-10.1,164.600006L-13,164.600006L-13,170.399994L-10.1,170.399994C-10.045,170.399994,-10,170.445007,-10,170.5L-10,176.5C-10,176.554993,-10.045,176.600006,-10.1,176.600006L-13,176.600006L-13,182.399994L-10.1,182.399994C-10.045,182.399994,-10,182.445007,-10,182.5L-10,191.5C-10,191.554993,-10.045,191.600006,-10.1,191.600006L-13.1,191.600006z"/>
    <path transform="matrix(1,-0,-0,-1,10.000007,194.600006)" style="stroke:#000000;stroke-width:0.050000mm;fill:none" d="M-122.800003,191.600006L-133.25,191.600006L-133.25,194.5C-133.25,194.554993,-133.294998,194.600006,-133.350006,194.600006L-139.350006,194.600006C-139.404999,194.600006,-139.449997,194.554993,-139.449997,194.5L-139.449997,191.600006L-145.25,191.600006L-145.25,194.5C-145.25,194.554993,-145.294998,194.600006,-145.350006,194.600006L-151.350006,194.600006C-151.404999,194.600006,-151.449997,194.554993,-151.449997,194.5L-151.449997,191.600006L-157.25,191.600006L-157.25,194.5C-157.25,194.554993,-157.294998,194.600006,-157.350006,194.600006L-163.350006,194.600006C-163.404999,194.600006,-163.449997,194.554993,-163.449997,194.5L-163.449997,191.600006L-169.25,191.600006L-169.25,194.5C-169.25,194.554993,-169.294998,194.600006,-169.350006,194.600006L-175.350006,194.600006C-175.404999,194.600006,-175.449997,194.554993,-175.449997,194.5L-175.449997,191.600006L-185.899994,191.600006C-185.955002,191.600006,-186,191.554993,-186,191.5L-186,182.600006L-188.899994,182.600006C-188.955002,182.600006,-189,182.554993,-189,182.5L-189,176.5C-189,176.445007,-188.955002,176.399994,-188.899994,176.399994L-186,176.399994L-186,170.600006L-188.899994,170.600006C-188.955002,170.600006,-189,170.554993,-189,170.5L-189,164.5C-189,164.445007,-188.955002,164.399994,-188.899994,164.399994L-186,164.399994L-186,158.600006L-188.899994,158.600006C-188.955002,158.600006,-189,158.554993,-189,158.5L-189,152.5C-189,152.445007,-188.955002,152.399994,-188.899994,152.399994L-186,152.399994L-186,143.5C-186,143.445007,-185.955002,143.399994,-185.899994,143.399994L-122.800003,143.399994C-122.745003,143.399994,-122.699997,143.445007,-122.699997,143.5L-122.699997,152.399994L-119.800003,152.399994C-119.745003,152.399994,-119.699997,152.445007,-119.699997,152.5L-119.699997,158.5C-119.699997,158.554993,-119.745003,158.600006,-119.800003,158.600006L-122.699997,158.600006L-122.699997,164.399994L-119.800003,164.399994C-119.745003,164.399994,-119.699997,164.445007,-119.699997,164.5L-119.699997,170.5C-119.699997,170.554993,-119.745003,170.600006,-119.800003,170.600006L-122.699997,170.600006L-122.699997,176.399994L-119.800003,176.399994C-119.745003,176.399994,-119.699997,176.445007,-119.699997,176.5L-119.699997,182.5C-119.699997,182.554993,-119.745003,182.600006,-119.800003,182.600006L-122.699997,182.600006L-122.699997,191.5C-122.699997,191.554993,-122.745003,191.600006,-122.800003,191.600006z"/>
    <path transform="matrix(1,-0,-0,-1,10.000007,194.600006)" style="stroke:#000000;stroke-width:0.050000mm;fill:none" d="M-13.1,138.899994L-19,138.899994L-19,141.800003C-19,141.854996,-19.045,141.899994,-19.1,141.899994L-25.1,141.899994C-25.155001,141.899994,-25.200001,141.854996,-25.200001,141.800003L-25.200001,138.899994L-31,138.899994L-31,141.800003C-31,141.854996,-31.045,141.899994,-31.1,141.899994L-37.099998,141.899994C-37.154999,141.899994,-37.200001,141.854996,-37.200001,141.800003L-37.200001,138.899994L-43,138.899994L-43,141.800003C-43,141.854996,-43.044998,141.899994,-43.099998,141.899994L-49.099998,141.899994C-49.154999,141.899994,-49.200001,141.854996,-49.200001,141.800003L-49.200001,138.899994L-55,138.899994L-55,141.800003C-55,141.854996,-55.044998,141.899994,-55.099998,141.899994L-61.099998,141.899994C-61.154999,141.899994,-61.200001,141.854996,-61.200001,141.800003L-61.200001,138.899994L-67,138.899994L-67,141.800003C-67,141.854996,-67.044998,141.899994,-67.099998,141.899994L-73.099998,141.899994C-73.154999,141.899994,-73.199997,141.854996,-73.199997,141.800003L-73.199997,138.899994L-79,138.899994L-79,141.800003C-79,141.854996,-79.044998,141.899994,-79.099998,141.899994L-85.099998,141.899994C-85.154999,141.899994,-85.199997,141.854996,-85.199997,141.800003L-85.199997,138.899994L-91,138.899994L-91,141.800003C-91,141.854996,-91.044998,141.899994,-91.099998,141.899994L-97.099998,141.899994C-97.154999,141.899994,-97.199997,141.854996,-97.199997,141.800003L-97.199997,138.899994L-103,138.899994L-103,141.800003C-103,141.854996,-103.044998,141.899994,-103.099998,141.899994L-109.099998,141.899994C-109.154999,141.899994,-109.199997,141.854996,-109.199997,141.800003L-109.199997,138.899994L-115.099998,138.899994L-118.099998,138.899994C-118.154999,138.899994,-118.199997,138.854996,-118.199997,138.800003L-118.199997,129.800003C-118.199997,129.744995,-118.154999,129.699997,-118.099998,129.699997L-115.199997,129.699997L-115.199997,123.900002L-118.099998,123.900002C-118.154999,123.900002,-118.199997,123.855003,-118.199997,123.800003L-118.199997,117.800003C-118.199997,117.745003,-118.154999,117.699997,-118.099998,117.699997L-115.199997,117.699997L-115.199997,111.900002L-118.099998,111.900002C-118.154999,111.900002,-118.199997,111.855003,-118.199997,111.800003L-118.199997,105.800003C-118.199997,105.745003,-118.154999,105.699997,-118.099998,105.699997L-115.199997,105.699997L-115.199997,99.900002L-118.099998,99.900002C-118.154999,99.900002,-118.199997,99.855003,-118.199997,99.800003L-118.199997,90.800003C-118.199997,90.745003,-118.154999,90.699997,-118.099998,90.699997L-115.099998,90.699997L-13.1,90.699997L-10.1,90.699997C-10.045,90.699997,-10,90.745003,-10,90.800003L-10,99.800003C-10,99.855003,-10.045,99.900002,-10.1,99.900002L-13,99.900002L-13,105.699997L-10.1,105.699997C-10.045,105.699997,-10,105.745003,-10,105.800003L-10,111.800003C-10,111.855003,-10.045,111.900002,-10.1,111.900002L-13,111.900002L-13,117.699997L-10.1,117.699997C-10.045,117.699997,-10,117.745003,-10,117.800003L-10,123.800003C-10,123.855003,-10.045,123.900002,-10.1,123.900002L-13,123.900002L-13,129.699997L-10.1,129.699997C-10.045,129.699997,-10,129.744995,-10,129.800003L-10,138.800003C-10,138.854996,-10.045,138.899994,-10.1,138.899994L-13.1,138.899994z"/>
    <path transform="matrix(0.000001,-1,1,0.000001,-255.249878,-67.000076)" style="stroke:#000000;stroke-width:0.050000mm;fill:none" d="M-122.800003,138.899994L-133.25,138.899994L-133.25,141.800003C-133.25,141.854996,-133.294998,141.899994,-133.350006,141.899994L-139.350006,141.899994C-139.404999,141.899994,-139.449997,141.854996,-139.449997,141.800003L-139.449997,138.899994L-145.25,138.899994L-145.25,141.800003C-145.25,141.854996,-145.294998,141.899994,-145.350006,141.899994L-151.350006,141.899994C-151.404999,141.899994,-151.449997,141.854996,-151.449997,141.800003L-151.449997,138.899994L-157.25,138.899994L-157.25,141.800003C-157.25,141.854996,-157.294998,141.899994,-157.350006,141.899994L-163.350006,141.899994C-163.404999,141.899994,-163.449997,141.854996,-163.449997,141.800003L-163.449997,138.899994L-169.25,138.899994L-169.25,141.800003C-169.25,141.854996,-169.294998,141.899994,-169.350006,141.899994L-175.350006,141.899994C-175.404999,141.899994,-175.449997,141.854996,-175.449997,141.800003L-175.449997,138.899994L-185.899994,138.899994C-185.955002,138.899994,-186,138.854996,-186,138.800003L-186,129.899994L-188.899994,129.899994C-188.955002,129.899994,-189,129.854996,-189,129.800003L-189,123.800003C-189,123.745003,-188.955002,123.699997,-188.899994,123.699997L-186,123.699997L-186,117.900002L-188.899994,117.900002C-188.955002,117.900002,-189,117.855003,-189,117.800003L-189,111.800003C-189,111.745003,-188.955002,111.699997,-188.899994,111.699997L-186,111.699997L-186,105.900002L-188.899994,105.900002C-188.955002,105.900002,-189,105.855003,-189,105.800003L-189,99.800003C-189,99.745003,-188.955002,99.699997,-188.899994,99.699997L-186,99.699997L-186,90.800003C-186,90.745003,-185.955002,90.699997,-185.899994,90.699997L-122.800003,90.699997C-122.745003,90.699997,-122.699997,90.745003,-122.699997,90.800003L-122.699997,99.699997L-119.800003,99.699997C-119.745003,99.699997,-119.699997,99.745003,-119.699997,99.800003L-119.699997,105.800003C-119.699997,105.855003,-119.745003,105.900002,-119.800003,105.900002L-122.699997,105.900002L-122.699997,111.699997L-119.800003,111.699997C-119.745003,111.699997,-119.699997,111.745003,-119.699997,111.800003L-119.699997,117.800003C-119.699997,117.855003,-119.745003,117.900002,-119.800003,117.900002L-122.699997,117.900002L-122.699997,123.699997L-119.800003,123.699997C-119.745003,123.699997,-119.699997,123.745003,-119.699997,123.800003L-119.699997,129.800003C-119.699997,129.854996,-119.745003,129.899994,-119.800003,129.899994L-122.699997,129.899994L-122.699997,138.800003C-122.699997,138.854996,-122.745003,138.899994,-122.800003,138.899994z"/>
    <path transform="matrix(0.000001,-1,1,0.000001,-255.249878,-67.000076)" style="stroke:#0000ff;stroke-width:0.050000mm;fill:none" d="M-126.800003,96.699997L-124.900002,96.699997L-124.900002,93.900002L-128.699997,93.900002L-128.699997,96.699997L-126.800003,96.699997z"/>
    <path transform="matrix(0.000001,-1,1,0.000001,-255.249878,-67.000076)" style="stroke:#0000ff;stroke-width:0.050000mm;fill:none" d="M-181.899994,93.900002L-183.800003,93.900002L-183.800003,96.699997L-180,96.699997L-180,93.900002L-181.899994,93.900002z"/>
    <rect transform="matrix(-1,0,0,1,-13.6,78.300034)" style="stroke:#0000ff;stroke-width:0.050000mm;fill:none" x="-4.5" y="-7" width="9" height="14"/>
    <rect transform="matrix(-1,0,0,-1,-121,68.800026)" style="stroke:#0000ff;stroke-width:0.050000mm;fill:none" x="-2" y="-5" width="4" height="10"/>
    <path transform="matrix(-1,0.000001,0.000001,1,-306.799988,85.400162)" style="stroke:#000000;stroke-width:0.050000mm;fill:none" d="M-130.800003,13L-128.899994,13L-128.899994,10.1C-128.899994,10.045,-128.854996,10,-128.800003,10L-124.800003,10C-124.745003,10,-124.699997,10.045,-124.699997,10.1L-124.699997,13L-122.800003,13C-122.745003,13,-122.699997,13.045,-122.699997,13.1L-122.699997,15L-119.800003,15C-119.745003,15,-119.699997,15.045,-119.699997,15.1L-119.699997,19.1C-119.699997,19.155001,-119.745003,19.200001,-119.800003,19.200001L-122.699997,19.200001L-122.699997,21.1C-122.699997,21.155001,-122.745003,21.200001,-122.800003,21.200001C-122.827003,21.200001,-122.851997,21.188999,-122.871002,21.171L-130.871002,13.171C-130.889008,13.152,-130.899994,13.127,-130.899994,13.1C-130.899994,13.045,-130.854996,13,-130.800003,13z"/>
    <path transform="matrix(-0.561048,0.000001,0.000001,0.555559,-251.726013,92.4076)" style="stroke:#0000ff;stroke-width:0.089999mm;fill:none" d="M-125.467003,16.667C-125.293999,16.667,-125.125,16.617001,-124.980003,16.524C-124.834999,16.431,-124.720001,16.297001,-124.648003,16.141001C-124.575996,15.984,-124.551003,15.809,-124.575996,15.639C-124.599998,15.468,-124.674004,15.308,-124.786003,15.177C-124.899002,15.047,-125.047997,14.952,-125.212997,14.903C-125.378998,14.855,-125.555,14.855,-125.720001,14.903C-125.886002,14.952,-126.033997,15.047,-126.147003,15.177C-126.260002,15.308,-126.333,15.468,-126.358002,15.639C-126.382004,15.809,-126.357002,15.984,-126.285004,16.141001C-126.213997,16.297001,-126.098,16.431,-125.953003,16.524C-125.807999,16.617001,-125.639,16.667,-125.467003,16.667z"/>
    <path transform="matrix(1,-0,-0,-1,7.850013,211.899963)" style="stroke:#000000;stroke-width:0.050000mm;fill:none" d="M-119.800003,89.199997L-221.800003,89.199997C-221.854996,89.199997,-221.899994,89.154999,-221.899994,89.099998L-221.899994,26C-221.899994,25.945,-221.854996,25.9,-221.800003,25.9L-119.800003,25.9C-119.745003,25.9,-119.699997,25.945,-119.699997,26L-119.699997,89.099998C-119.699997,89.154999,-119.745003,89.199997,-119.800003,89.199997z"/>
    <circle transform="matrix(1,-0,-0,-1,-150.449997,156.850037)" style="stroke:#0000ff;stroke-width:0.050000mm;fill:none" r="1.5" cx="0" cy="0"/>
    <circle transform="matrix(1,-0,-0,-1,-160.449997,151.850037)" style="stroke:#0000ff;stroke-width:0.050000mm;fill:none" r="1.5" cx="0" cy="0"/>
    <circle transform="matrix(1,-0,-0,-1,-165.449997,141.850021)" style="stroke:#0000ff;stroke-width:0.050000mm;fill:none" r="1.5" cx="0" cy="0"/>
    <circle transform="matrix(1,-0,-0,-1,-170.449997,146.850037)" style="stroke:#0000ff;stroke-width:0.050000mm;fill:none" r="1.5" cx="0" cy="0"/>
    <circle transform="matrix(1,-0,-0,-1,-155.449997,161.850037)" style="stroke:#0000ff;stroke-width:0.050000mm;fill:none" r="1.5" cx="0" cy="0"/>
    <circle transform="matrix(1,-0,-0,-1,-175.449997,156.850037)" style="stroke:#0000ff;stroke-width:0.050000mm;fill:none" r="1.5" cx="0" cy="0"/>
    <circle transform="matrix(1,-0,-0,-1,-165.449997,156.850037)" style="stroke:#0000ff;stroke-width:0.050000mm;fill:none" r="1.5" cx="0" cy="0"/>
    <circle transform="matrix(1,-0,-0,-1,-165.449997,166.850037)" style="stroke:#0000ff;stroke-width:0.050000mm;fill:none" r="1.5" cx="0" cy="0"/>
    <circle transform="matrix(1,-0,-0,-1,-150.449997,151.850037)" style="stroke:#0000ff;stroke-width:0.050000mm;fill:none" r="1.5" cx="0" cy="0"/>
    <circle transform="matrix(1,-0,-0,-1,-165.449997,161.850037)" style="stroke:#0000ff;stroke-width:0.050000mm;fill:none" r="1.5" cx="0" cy="0"/>
    <circle transform="matrix(1,-0,-0,-1,-160.449997,141.850021)" style="stroke:#0000ff;stroke-width:0.050000mm;fill:none" r="1.5" cx="0" cy="0"/>
    <circle transform="matrix(1,-0,-0,-1,-170.449997,156.850037)" style="stroke:#0000ff;stroke-width:0.050000mm;fill:none" r="1.5" cx="0" cy="0"/>
    <circle transform="matrix(1,-0,-0,-1,-155.449997,156.850037)" style="stroke:#0000ff;stroke-width:0.050000mm;fill:none" r="1.5" cx="0" cy="0"/>
    <circle transform="matrix(1,-0,-0,-1,-155.449997,146.850037)" style="stroke:#0000ff;stroke-width:0.050000mm;fill:none" r="1.5" cx="0" cy="0"/>
    <circle transform="matrix(1,-0,-0,-1,-160.449997,166.850037)" style="stroke:#0000ff;stroke-width:0.050000mm;fill:none" r="1.5" cx="0" cy="0"/>
    <circle transform="matrix(1,-0,-0,-1,-160.449997,161.850037)" style="stroke:#0000ff;stroke-width:0.050000mm;fill:none" r="1.5" cx="0" cy="0"/>
    <circle transform="matrix(1,-0,-0,-1,-170.449997,161.850037)" style="stroke:#0000ff;stroke-width:0.050000mm;fill:none" r="1.5" cx="0" cy="0"/>
    <circle transform="matrix(1,-0,-0,-1,-165.449997,151.850037)" style="stroke:#0000ff;stroke-width:0.050000mm;fill:none" r="1.5" cx="0" cy="0"/>
    <circle transform="matrix(1,-0,-0,-1,-160.449997,156.850037)" style="stroke:#0000ff;stroke-width:0.050000mm;fill:none" r="1.5" cx="0" cy="0"/>
    <circle transform="matrix(1,-0,-0,-1,-165.449997,146.850037)" style="stroke:#0000ff;stroke-width:0.050000mm;fill:none" r="1.5" cx="0" cy="0"/>
    <circle transform="matrix(1,-0,-0,-1,-175.449997,151.850037)" style="stroke:#0000ff;stroke-width:0.050000mm;fill:none" r="1.5" cx="0" cy="0"/>
    <circle transform="matrix(1,-0,-0,-1,-155.449997,151.850037)" style="stroke:#0000ff;stroke-width:0.050000mm;fill:none" r="1.5" cx="0" cy="0"/>
    <circle transform="matrix(1,-0,-0,-1,-160.449997,146.850037)" style="stroke:#0000ff;stroke-width:0.050000mm;fill:none" r="1.5" cx="0" cy="0"/>
    <circle transform="matrix(1,-0,-0,-1,-170.449997,151.850037)" style="stroke:#0000ff;stroke-width:0.050000mm;fill:none" r="1.5" cx="0" cy="0"/>
    <circle transform="matrix(1,-0,-0,-1,-162.950012,154.350037)" style="stroke:#ff0000;stroke-width:0.050000mm;fill:none" r="19" cx="0" cy="0"/>
    <path transform="matrix(0.357111,-0,-0,-0.3608,-70.882568,156.651871)" style="stroke:#0000ff;stroke-width:0.140012mm;fill:none" d="M-123.866997,86.432999C-123.866997,86.702003,-123.790001,86.963997,-123.643997,87.190002C-123.499001,87.416,-123.292,87.595001,-123.047997,87.707001C-122.804001,87.818001,-122.532997,87.857002,-122.266998,87.819C-122.001999,87.780998,-121.752998,87.667,-121.550003,87.490997C-121.347,87.316002,-121.198997,87.084999,-121.123001,86.828003C-121.047997,86.57,-121.047997,86.295998,-121.123001,86.039001C-121.198997,85.780998,-121.347,85.551003,-121.550003,85.375C-121.752998,85.199997,-122.001999,85.085999,-122.266998,85.047997C-122.532997,85.009003,-122.804001,85.047997,-123.047997,85.160004C-123.292,85.271004,-123.499001,85.450996,-123.643997,85.676003C-123.790001,85.902,-123.866997,86.165001,-123.866997,86.432999z"/>
    <path transform="matrix(0.360801,-0,-0,-0.357111,-132.219742,156.33313)" style="stroke:#0000ff;stroke-width:0.140012mm;fill:none" d="M-219.132996,85.032997C-219.401993,85.032997,-219.664001,85.110001,-219.889999,85.255997C-220.115997,85.401001,-220.294998,85.608002,-220.406998,85.851997C-220.518005,86.096001,-220.557007,86.366997,-220.518997,86.633003C-220.481003,86.898003,-220.367004,87.147003,-220.190994,87.349998C-220.016006,87.553001,-219.785004,87.700996,-219.528,87.777C-219.270004,87.851997,-218.996002,87.851997,-218.738998,87.777C-218.481003,87.700996,-218.251007,87.553001,-218.074997,87.349998C-217.899994,87.147003,-217.785995,86.898003,-217.748001,86.633003C-217.709,86.366997,-217.748001,86.096001,-217.860001,85.851997C-217.970993,85.608002,-218.151001,85.401001,-218.376007,85.255997C-218.602005,85.110001,-218.865005,85.032997,-219.132996,85.032997z"/>
    <path transform="matrix(0.357111,-0,-0,-0.360801,-133.028214,193.576233)" style="stroke:#0000ff;stroke-width:0.140012mm;fill:none" d="M-217.733002,28.667C-217.733002,28.398001,-217.809998,28.136,-217.955994,27.91C-218.100998,27.684,-218.307999,27.504999,-218.552002,27.393C-218.796005,27.282,-219.067001,27.243,-219.332993,27.281C-219.598007,27.319,-219.847,27.433001,-220.050003,27.608999C-220.253006,27.784,-220.401001,28.014999,-220.477005,28.271999C-220.552002,28.530001,-220.552002,28.804001,-220.477005,29.061001C-220.401001,29.319,-220.253006,29.549,-220.050003,29.725C-219.847,29.9,-219.598007,30.014,-219.332993,30.052C-219.067001,30.091,-218.796005,30.052,-218.552002,29.940001C-218.307999,29.829,-218.100998,29.649,-217.955994,29.424C-217.809998,29.198,-217.733002,28.934999,-217.733002,28.667z"/>
    <path transform="matrix(0.360796,-0,-0,-0.357111,-70.431198,193.470383)" style="stroke:#0000ff;stroke-width:0.140012mm;fill:none" d="M-122.467003,30.066999C-122.197998,30.066999,-121.935997,29.99,-121.709999,29.844C-121.484001,29.698999,-121.305,29.492001,-121.193001,29.247999C-121.082001,29.004,-121.042999,28.733,-121.081001,28.466999C-121.119003,28.202,-121.233002,27.952999,-121.408997,27.75C-121.584,27.547001,-121.815002,27.399,-122.071999,27.323C-122.330002,27.247999,-122.603996,27.247999,-122.861,27.323C-123.119003,27.399,-123.348999,27.547001,-123.525002,27.75C-123.699997,27.952999,-123.814003,28.202,-123.851997,28.466999C-123.890999,28.733,-123.851997,29.004,-123.739998,29.247999C-123.628998,29.492001,-123.448997,29.698999,-123.223999,29.844C-122.998001,29.99,-122.735001,30.066999,-122.467003,30.066999z"/>
    <path transform="matrix(1,-0.000002,-0.000002,-1,-53.199989,120.599792)" style="stroke:#000000;stroke-width:0.050000mm;fill:none" d="M-130.800003,13L-128.899994,13L-128.899994,10.1C-128.899994,10.045,-128.854996,10,-128.800003,10L-124.800003,10C-124.745003,10,-124.699997,10.045,-124.699997,10.1L-124.699997,13L-122.800003,13C-122.745003,13,-122.699997,13.045,-122.699997,13.1L-122.699997,15L-119.800003,15C-119.745003,15,-119.699997,15.045,-119.699997,15.1L-119.699997,19.1C-119.699997,19.155001,-119.745003,19.200001,-119.800003,19.200001L-122.699997,19.200001L-122.699997,21.1C-122.699997,21.155001,-122.745003,21.200001,-122.800003,21.200001C-122.827003,21.200001,-122.851997,21.188999,-122.871002,21.171L-130.871002,13.171C-130.889008,13.152,-130.899994,13.127,-130.899994,13.1C-130.899994,13.045,-130.854996,13,-130.800003,13z"/>
    <path transform="matrix(0.561048,-0.000001,-0.000001,-0.555559,-108.273972,113.592369)" style="stroke:#0000ff;stroke-width:0.089999mm;fill:none" d="M-125.467003,16.667C-125.293999,16.667,-125.125,16.617001,-124.980003,16.524C-124.834999,16.431,-124.720001,16.297001,-124.648003,16.141001C-124.575996,15.984,-124.551003,15.809,-124.575996,15.639C-124.599998,15.468,-124.674004,15.308,-124.786003,15.177C-124.899002,15.047,-125.047997,14.952,-125.212997,14.903C-125.378998,14.855,-125.555,14.855,-125.720001,14.903C-125.886002,14.952,-126.033997,15.047,-126.147003,15.177C-126.260002,15.308,-126.333,15.468,-126.358002,15.639C-126.382004,15.809,-126.357002,15.984,-126.285004,16.141001C-126.213997,16.297001,-126.098,16.431,-125.953003,16.524C-125.807999,16.617001,-125.639,16.667,-125.467003,16.667z"/>
    <path transform="matrix(-1,0.000001,0.000001,1,-299.799988,96.400162)" style="stroke:#000000;stroke-width:0.050000mm;fill:none" d="M-130.800003,13L-128.899994,13L-128.899994,10.1C-128.899994,10.045,-128.854996,10,-128.800003,10L-124.800003,10C-124.745003,10,-124.699997,10.045,-124.699997,10.1L-124.699997,13L-122.800003,13C-122.745003,13,-122.699997,13.045,-122.699997,13.1L-122.699997,15L-119.800003,15C-119.745003,15,-119.699997,15.045,-119.699997,15.1L-119.699997,19.1C-119.699997,19.155001,-119.745003,19.200001,-119.800003,19.200001L-122.699997,19.200001L-122.699997,21.1C-122.699997,21.155001,-122.745003,21.200001,-122.800003,21.200001C-122.827003,21.200001,-122.851997,21.188999,-122.871002,21.171L-130.871002,13.171C-130.889008,13.152,-130.899994,13.127,-130.899994,13.1C-130.899994,13.045,-130.854996,13,-130.800003,13z"/>
    <path transform="matrix(-0.561048,0.000001,0.000001,0.555559,-244.726044,103.4076)" style="stroke:#0000ff;stroke-width:0.089999mm;fill:none" d="M-125.467003,16.667C-125.293999,16.667,-125.125,16.617001,-124.980003,16.524C-124.834999,16.431,-124.720001,16.297001,-124.648003,16.141001C-124.575996,15.984,-124.551003,15.809,-124.575996,15.639C-124.599998,15.468,-124.674004,15.308,-124.786003,15.177C-124.899002,15.047,-125.047997,14.952,-125.212997,14.903C-125.378998,14.855,-125.555,14.855,-125.720001,14.903C-125.886002,14.952,-126.033997,15.047,-126.147003,15.177C-126.260002,15.308,-126.333,15.468,-126.358002,15.639C-126.382004,15.809,-126.357002,15.984,-126.285004,16.141001C-126.213997,16.297001,-126.098,16.431,-125.953003,16.524C-125.807999,16.617001,-125.639,16.667,-125.467003,16.667z"/>
    <path transform="matrix(1,-0.000002,-0.000002,-1,-46.199989,131.599792)" style="stroke:#000000;stroke-width:0.050000mm;fill:none" d="M-130.800003,13L-128.899994,13L-128.899994,10.1C-128.899994,10.045,-128.854996,10,-128.800003,10L-124.800003,10C-124.745003,10,-124.699997,10.045,-124.699997,10.1L-124.699997,13L-122.800003,13C-122.745003,13,-122.699997,13.045,-122.699997,13.1L-122.699997,15L-119.800003,15C-119.745003,15,-119.699997,15.045,-119.699997,15.1L-119.699997,19.1C-119.699997,19.155001,-119.745003,19.200001,-119.800003,19.200001L-122.699997,19.200001L-122.699997,21.1C-122.699997,21.155001,-122.745003,21.200001,-122.800003,21.200001C-122.827003,21.200001,-122.851997,21.188999,-122.871002,21.171L-130.871002,13.171C-130.889008,13.152,-130.899994,13.127,-130.899994,13.1C-130.899994,13.045,-130.854996,13,-130.800003,13z"/>
    <path transform="matrix(0.561048,-0.000001,-0.000001,-0.555559,-101.273972,124.592369)" style="stroke:#0000ff;stroke-width:0.089999mm;fill:none" d="M-125.467003,16.667C-125.293999,16.667,-125.125,16.617001,-124.980003,16.524C-124.834999,16.431,-124.720001,16.297001,-124.648003,16.141001C-124.575996,15.984,-124.551003,15.809,-124.575996,15.639C-124.599998,15.468,-124.674004,15.308,-124.786003,15.177C-124.899002,15.047,-125.047997,14.952,-125.212997,14.903C-125.378998,14.855,-125.555,14.855,-125.720001,14.903C-125.886002,14.952,-126.033997,15.047,-126.147003,15.177C-126.260002,15.308,-126.333,15.468,-126.358002,15.639C-126.382004,15.809,-126.357002,15.984,-126.285004,16.141001C-126.213997,16.297001,-126.098,16.431,-125.953003,16.524C-125.807999,16.617001,-125.639,16.667,-125.467003,16.667z"/>
    <path transform="matrix(-1,0.000001,0.000001,1,-299.800018,75.400162)" style="stroke:#000000;stroke-width:0.050000mm;fill:none" d="M-130.800003,13L-128.899994,13L-128.899994,10.1C-128.899994,10.045,-128.854996,10,-128.800003,10L-124.800003,10C-124.745003,10,-124.699997,10.045,-124.699997,10.1L-124.699997,13L-122.800003,13C-122.745003,13,-122.699997,13.045,-122.699997,13.1L-122.699997,15L-119.800003,15C-119.745003,15,-119.699997,15.045,-119.699997,15.1L-119.699997,19.1C-119.699997,19.155001,-119.745003,19.200001,-119.800003,19.200001L-122.699997,19.200001L-122.699997,21.1C-122.699997,21.155001,-122.745003,21.200001,-122.800003,21.200001C-122.827003,21.200001,-122.851997,21.188999,-122.871002,21.171L-130.871002,13.171C-130.889008,13.152,-130.899994,13.127,-130.899994,13.1C-130.899994,13.045,-130.854996,13,-130.800003,13z"/>
    <path transform="matrix(-0.561048,0.000001,0.000001,0.555559,-244.726044,82.4076)" style="stroke:#0000ff;stroke-width:0.089999mm;fill:none" d="M-125.467003,16.667C-125.293999,16.667,-125.125,16.617001,-124.980003,16.524C-124.834999,16.431,-124.720001,16.297001,-124.648003,16.141001C-124.575996,15.984,-124.551003,15.809,-124.575996,15.639C-124.599998,15.468,-124.674004,15.308,-124.786003,15.177C-124.899002,15.047,-125.047997,14.952,-125.212997,14.903C-125.378998,14.855,-125.555,14.855,-125.720001,14.903C-125.886002,14.952,-126.033997,15.047,-126.147003,15.177C-126.260002,15.308,-126.333,15.468,-126.358002,15.639C-126.382004,15.809,-126.357002,15.984,-126.285004,16.141001C-126.213997,16.297001,-126.098,16.431,-125.953003,16.524C-125.807999,16.617001,-125.639,16.667,-125.467003,16.667z"/>
    <path transform="matrix(1,-0.000002,-0.000002,-1,-46.199974,110.599792)" style="stroke:#000000;stroke-width:0.050000mm;fill:none" d="M-130.800003,13L-128.899994,13L-128.899994,10.1C-128.899994,10.045,-128.854996,10,-128.800003,10L-124.800003,10C-124.745003,10,-124.699997,10.045,-124.699997,10.1L-124.699997,13L-122.800003,13C-122.745003,13,-122.699997,13.045,-122.699997,13.1L-122.699997,15L-119.800003,15C-119.745003,15,-119.699997,15.045,-119.699997,15.1L-119.699997,19.1C-119.699997,19.155001,-119.745003,19.200001,-119.800003,19.200001L-122.699997,19.200001L-122.699997,21.1C-122.699997,21.155001,-122.745003,21.200001,-122.800003,21.200001C-122.827003,21.200001,-122.851997,21.188999,-122.871002,21.171L-130.871002,13.171C-130.889008,13.152,-130.899994,13.127,-130.899994,13.1C-130.899994,13.045,-130.854996,13,-130.800003,13z"/>
    <path transform="matrix(0.561048,-0.000001,-0.000001,-0.555559,-101.273956,103.592369)" style="stroke:#0000ff;stroke-width:0.089999mm;fill:none" d="M-125.467003,16.667C-125.293999,16.667,-125.125,16.617001,-124.980003,16.524C-124.834999,16.431,-124.720001,16.297001,-124.648003,16.141001C-124.575996,15.984,-124.551003,15.809,-124.575996,15.639C-124.599998,15.468,-124.674004,15.308,-124.786003,15.177C-124.899002,15.047,-125.047997,14.952,-125.212997,14.903C-125.378998,14.855,-125.555,14.855,-125.720001,14.903C-125.886002,14.952,-126.033997,15.047,-126.147003,15.177C-126.260002,15.308,-126.333,15.468,-126.358002,15.639C-126.382004,15.809,-126.357002,15.984,-126.285004,16.141001C-126.213997,16.297001,-126.098,16.431,-125.953003,16.524C-125.807999,16.617001,-125.639,16.667,-125.467003,16.667z"/>
    <path transform="matrix(-1,0,0,1,0,0)" style="stroke:none;fill:#00e000;fill-rule:evenodd" d="M170.64679,132.767822L170.527649,132.709229C170.422943,132.620712,170.338379,132.510834,170.279602,132.386963L170.279602,132.735107L169.929016,132.735107L169.929016,130.436279L170.318665,130.436279L170.318665,131.639893C170.302307,131.839752,170.345139,132.040329,170.441711,132.216064C170.543442,132.363998,170.732361,132.424622,170.901184,132.363525L171.043762,132.300049L171.17804,132.661865C171.024063,132.770966,170.830841,132.809494,170.64679,132.767822z"/>
    <path transform="matrix(-1,0,0,1,0,0)" style="stroke:none;fill:#00e000;fill-rule:evenodd" d="M165.236145,130.436279L165.625793,130.436279L165.625793,131.3479L165.900696,131.612061L166.660461,130.436279L167.14093,130.436279L166.173645,131.882568L167.052551,132.735107L166.548157,132.735107L165.625793,131.800049L165.625793,133.610107L165.236145,133.610107L165.236145,130.436279z"/>
    <path transform="matrix(-1,0,0,1,0,0)" style="stroke:none;fill:#00e000;fill-rule:evenodd" d="M168.167297,132.767334L167.962708,132.707275C167.613174,132.552475,167.374832,132.220734,167.339661,131.840088C167.279907,131.508011,167.331757,131.165482,167.487122,130.865967C167.685928,130.548019,168.041916,130.363571,168.416321,130.384521C168.889481,130.350311,169.318054,130.665009,169.427063,131.126709L169.024231,131.176514L168.976379,131.061768C168.907913,130.912125,168.783005,130.795517,168.628799,130.738022C168.474609,130.680511,168.303848,130.686859,168.154114,130.755127C167.877319,130.890564,167.707764,131.178329,167.72345,131.486084L169.437805,131.486084C169.460648,131.767395,169.40451,132.049423,169.275696,132.300537C169.046921,132.680267,168.598801,132.868988,168.167297,132.767334zM168.540344,132.452881C168.834579,132.378983,169.037811,132.110123,169.028625,131.806885L167.744934,131.806885C167.742874,132.120529,167.962677,132.392288,168.269836,132.455811C168.359406,132.47171,168.451141,132.470718,168.540344,132.452881z"/>
    <path transform="matrix(-1,0,0,1,0,0)" style="stroke:none;fill:#00e000;fill-rule:evenodd" d="M163.444641,132.766846L163.201477,132.706299C162.92334,132.614273,162.722687,132.370041,162.68634,132.079346L163.0672,132.027588L163.102844,132.140381C163.161713,132.330856,163.339035,132.460464,163.538391,132.45874C163.73822,132.498108,163.945831,132.452408,164.110657,132.332764C164.207169,132.208755,164.246506,132.049988,164.219055,131.895264C163.876312,131.809143,163.528442,131.744873,163.177551,131.702881L163.029602,131.64917C162.865952,131.582565,162.735565,131.453354,162.667953,131.290131C162.600327,131.126892,162.601135,130.943344,162.669739,130.780518C162.807281,130.507294,163.101273,130.348984,163.40509,130.384521C163.719742,130.383423,164.022842,130.503586,164.251282,130.719971L164.279602,130.567627L164.329407,130.436279L164.736145,130.436279L164.674622,130.571533C164.623306,130.760849,164.603012,130.95726,164.614563,131.153076L164.611633,132.039307C164.633453,132.22052,164.581833,132.404144,164.463623,132.54306C164.345428,132.681976,164.172424,132.762314,163.990051,132.769775C163.809006,132.794235,163.625412,132.793259,163.444641,132.766846zM164.219055,131.44751C164.242203,131.227707,164.160568,131.009186,163.996948,130.860626C163.833344,130.712067,163.607971,130.65184,163.391418,130.696045C163.195908,130.699722,163.038116,130.857941,163.034973,131.053467C163.041809,131.241241,163.189774,131.393631,163.377258,131.406006C163.511017,131.434525,163.645889,131.457489,163.781555,131.474854L163.953918,131.51001C164.044174,131.530045,164.132797,131.556824,164.219055,131.590088L164.219055,131.44751z"/>
    <path transform="matrix(-1,0,0,1,0,0)" style="stroke:none;fill:#00e000;fill-rule:evenodd" d="M160.985168,132.767334C160.532928,132.678223,160.194672,132.299484,160.157043,131.840088C160.0979,131.507996,160.149719,131.165665,160.304504,130.865967C160.503387,130.548126,160.859344,130.363693,161.233704,130.384521C161.707031,130.350113,162.135849,130.664841,162.244934,131.126709L161.842102,131.176514L161.793762,131.061768C161.725449,130.912094,161.600632,130.795456,161.446503,130.737946C161.292358,130.68042,161.121643,130.686783,160.971985,130.755127C160.69519,130.890564,160.525635,131.178329,160.541321,131.486084L162.255676,131.486084C162.278412,131.76738,162.222275,132.049393,162.093567,132.300537C161.864792,132.680267,161.416672,132.868988,160.985168,132.767334zM161.357727,132.452881L161.485657,132.4104C161.711578,132.29512,161.851883,132.060471,161.846497,131.806885L160.562805,131.806885C160.560745,132.120529,160.780548,132.392288,161.087708,132.455811C161.177109,132.47171,161.268692,132.470718,161.357727,132.452881z"/>
    <path transform="matrix(-1,0,0,1,0,0)" style="stroke:none;fill:#00e000;fill-rule:evenodd" d="M155.804016,133.657471C155.435486,133.657486,155.096283,133.455826,154.920227,133.13208C154.748306,132.788025,154.863541,132.369461,155.187317,132.161865C155.473022,132.005615,155.783829,131.900681,156.105774,131.851807L156.26593,131.809814C156.47789,131.786697,156.670578,131.674072,156.794739,131.500732C156.885132,131.322205,156.847839,131.105545,156.702942,130.967529C156.522522,130.816315,156.290237,130.741516,156.055481,130.759033C155.747833,130.738098,155.448654,130.864578,155.249329,131.099854C155.175247,131.217804,155.130386,131.351715,155.118469,131.490479L154.721985,131.455811C154.724014,131.041977,154.972305,130.669052,155.353333,130.507568C155.825851,130.309494,156.362473,130.334229,156.814758,130.574951C157.196808,130.800507,157.350937,131.275467,157.174133,131.682373C157.016235,131.955368,156.746628,132.14505,156.43634,132.201416C156.212555,132.258652,155.997574,132.312485,155.773254,132.367432L155.590637,132.424561C155.480087,132.441833,155.380798,132.503235,155.317902,132.595764C155.25502,132.688278,155.234482,132.803192,155.259094,132.912354C155.337662,133.142044,155.55751,133.293427,155.80011,133.284912C156.052963,133.335648,156.316101,133.283585,156.530579,133.140381C156.662048,133.024643,156.741287,132.860718,156.750305,132.685791L157.153137,132.716064C157.145905,133.13826,156.853424,133.502304,156.442688,133.600342C156.234909,133.657333,156.018616,133.676682,155.804016,133.657471z"/>
    <path transform="matrix(-1,0,0,1,0,0)" style="stroke:none;fill:#00e000;fill-rule:evenodd" d="M158.699036,132.781982C158.469696,132.758926,158.263626,132.631577,158.140442,132.436768L158.140442,132.735107L157.785461,132.735107L157.785461,129.55542L158.17511,129.55542L158.17511,130.674561L158.288879,130.559814C158.625168,130.309052,159.092148,130.333664,159.400208,130.618408C159.72937,130.965149,159.861771,131.45369,159.752747,131.919189C159.71199,132.354294,159.381851,132.707535,158.9505,132.777588C158.867142,132.788925,158.782745,132.79039,158.699036,132.781982zM158.891907,132.468506L159.004211,132.42749C159.22406,132.298401,159.362686,132.066055,159.371887,131.811279C159.409622,131.553635,159.377579,131.290604,159.279114,131.049561C159.167725,130.800293,158.897446,130.662216,158.630188,130.718018C158.344543,130.803741,158.149002,131.067245,158.149719,131.365479C158.112045,131.621048,158.145493,131.88205,158.246399,132.119873C158.351883,132.374115,158.62146,132.519699,158.891907,132.468506z"/>
    <path transform="matrix(-1,0,0,1,0,0)" style="stroke:none;fill:#00e000;fill-rule:evenodd" d="M126.560913,63.856178L126.518433,63.943092C126.454269,64.019409,126.374306,64.080879,126.284058,64.123268L126.536987,64.123268L126.536987,64.378151L124.866089,64.378151L124.866089,64.094948L125.741089,64.094948C125.917534,64.120331,126.096153,64.06427,126.22644,63.942604C126.302979,63.828716,126.300835,63.679253,126.221069,63.567604L126.483765,63.470436C126.566032,63.580837,126.594391,63.72263,126.560913,63.856178z"/>
    <path transform="matrix(-1,0,0,1,0,0)" style="stroke:none;fill:#00e000;fill-rule:evenodd" d="M124.866089,68.303444L124.866089,67.99778L125.803589,67.99778L125.803589,67.406471C125.776802,67.162544,125.85051,66.918159,126.00769,66.729713C126.271484,66.492653,126.66642,66.47747,126.947632,66.693581C127.093948,66.832985,127.173882,67.028214,127.167358,67.230202C127.179657,67.587807,127.18161,67.945747,127.173218,68.303444L124.866089,68.303444zM126.900757,67.407936C126.932457,67.232506,126.873512,67.052925,126.744019,66.930397C126.569763,66.812042,126.336411,66.833298,126.186401,66.981178C126.101089,67.103851,126.061981,67.252823,126.07605,67.401588L126.07605,67.99778L126.900757,67.99778L126.900757,67.407936z"/>
    <path transform="matrix(-1,0,0,1,0,0)" style="stroke:none;fill:#00e000;fill-rule:evenodd" d="M126.95105,63.259499L126.536987,63.259499L126.536987,63.467506L126.316772,63.467506L126.316772,63.259499L125.355347,63.259499C125.214645,63.28553,125.068855,63.256268,124.949097,63.177956C124.841316,63.024681,124.811745,62.830482,124.869019,62.652077L125.119019,62.693092L125.111206,62.762917C125.083084,62.838238,125.114044,62.92342,125.18396,62.963112C125.234734,62.976448,125.287354,62.9814,125.339722,62.97776L126.316772,62.97776L126.316772,62.693092L126.536987,62.693092L126.536987,62.97776L127.120972,62.97776L126.95105,63.259499z"/>
    <path transform="matrix(-1,0,0,1,0,0)" style="stroke:none;fill:#00e000;fill-rule:evenodd" d="M126.563354,65.6511C126.514923,65.980095,126.24955,66.234612,125.918823,66.269264C125.667053,66.317101,125.406509,66.280006,125.178101,66.163795C124.860207,65.951996,124.737549,65.544731,124.88562,65.192604C124.996078,64.910088,125.269295,64.724449,125.572632,64.725807C125.850067,64.675652,126.135735,64.753807,126.348999,64.93821C126.53331,65.126213,126.613419,65.392624,126.563354,65.6511zM126.330444,65.401588C126.274681,65.183434,126.081833,65.027962,125.856812,65.019753C125.636215,64.973648,125.405975,65.021072,125.221558,65.150612C125.064941,65.285599,125.015854,65.507584,125.100952,65.696022C125.219818,65.910263,125.459,66.029076,125.701538,65.994362C125.943726,66.029457,126.182724,65.910446,126.300659,65.696022C126.340637,65.603271,126.351036,65.500465,126.330444,65.401588z"/>
    <path transform="matrix(-1,0,0,1,0,0)" style="stroke:none;fill:#00e000;fill-rule:evenodd" d="M124.866089,71.048561L124.866089,70.785378L125.075073,70.785378L124.967163,70.693581C124.783096,70.470589,124.780045,70.149529,124.959839,69.923073C125.148003,69.697098,125.433731,69.576332,125.726929,69.598854C125.995827,69.582123,126.257881,69.689392,126.437866,69.88987C126.617752,70.117203,126.622154,70.436958,126.448608,70.669167L126.349976,70.76487L127.173218,70.76487L127.173218,71.048561L124.866089,71.048561zM126.332397,70.243874L126.303101,70.161842C126.210419,70.001503,126.040985,69.901062,125.855835,69.896706C125.636383,69.852226,125.407883,69.898026,125.222534,70.023659C125.05867,70.146408,125.012688,70.372543,125.115601,70.549538C125.255653,70.733482,125.485977,70.825539,125.714233,70.788795C125.94854,70.817894,126.178482,70.707031,126.301636,70.505592C126.341591,70.424454,126.352455,70.332062,126.332397,70.243874z"/>
    <path transform="matrix(-1,0,0,1,0,0)" style="stroke:none;fill:#00e000;fill-rule:evenodd" d="M126.566284,72.235573C126.565514,72.382492,126.499107,72.521698,126.384476,72.613579C126.269836,72.70546,126.119514,72.739952,125.975952,72.708717C125.804382,72.642845,125.680008,72.492599,125.647339,72.311745C125.610519,72.189743,125.57682,72.066811,125.546265,71.943092L125.520874,71.859596C125.514984,71.80175,125.485764,71.748367,125.438835,71.714127C125.391907,71.679886,125.332153,71.668358,125.275269,71.680397C125.122963,71.739555,125.033348,71.897766,125.060913,72.058815C125.048965,72.162582,125.078194,72.267242,125.143669,72.34861C125.209145,72.42997,125.30513,72.480911,125.409058,72.491432L125.364624,72.771706C125.124329,72.748024,124.923904,72.577408,124.862183,72.343971C124.781212,72.08075,124.824356,71.794739,124.97937,71.567116C125.126846,71.377274,125.392944,71.327576,125.598999,71.451393C125.726547,71.578018,125.811104,71.740997,125.841187,71.91819L125.905151,72.150612C125.909676,72.251442,125.95356,72.346748,126.027222,72.415749C126.078949,72.456367,126.149956,72.461945,126.207397,72.429909C126.343544,72.30719,126.389961,72.113167,126.324097,71.942116C126.292099,71.823364,126.190521,71.736511,126.068237,71.723366L126.105835,71.44651C126.294952,71.458282,126.458275,71.583725,126.518433,71.763405C126.571045,71.914902,126.587433,72.076599,126.566284,72.235573z"/>
    <path transform="matrix(-1,0,0,1,0,0)" style="stroke:none;fill:#00e000;fill-rule:evenodd" d="M125.841675,73.428932L125.641968,73.437721C125.463676,73.42939,125.292984,73.511246,125.187866,73.655495C125.05899,73.907417,125.071762,74.207901,125.221558,74.447975C125.345222,74.57843,125.522018,74.645226,125.70105,74.629128C126.191628,74.642189,126.682571,74.643333,127.173218,74.632545L127.173218,74.93821C126.671021,74.953186,126.168434,74.951233,125.666382,74.93235C125.413383,74.943916,125.168495,74.8405,125.000366,74.6511C124.753983,74.264114,124.763199,73.76889,125.023804,73.391335C125.192406,73.21331,125.430222,73.117226,125.675171,73.128151C126.174355,73.111755,126.673935,73.110123,127.173218,73.123268L127.173218,73.428932L125.841675,73.428932z"/>
    <path transform="matrix(-1,0,0,1,0,0)" style="stroke:none;fill:#00e000;fill-rule:evenodd" d="M13.579156,68.82901L13.862359,68.82901L13.862359,69.155182L13.579156,69.155182L13.579156,68.82901z"/>
    <path transform="matrix(-1,0,0,1,0,0)" style="stroke:none;fill:#00e000;fill-rule:evenodd" d="M16.800837,66.848053L17.08404,66.848053L17.08404,67.762115C17.051493,67.950104,17.131937,68.140038,17.289606,68.247467C17.44343,68.350204,17.646927,68.33741,17.786674,68.216217C17.85537,68.128548,17.888342,68.01812,17.878962,67.907135L17.878962,66.848053L18.162165,66.848053C18.174129,67.239433,18.172825,67.631096,18.158257,68.022369C18.174942,68.270798,18.00264,68.492897,17.757866,68.538483C17.511374,68.604202,17.248802,68.52182,17.08404,68.327057L17.084038,69.155182L16.800835,69.155182L16.800837,66.848053z"/>
    <path transform="matrix(-1,0,0,1,0,0)" style="stroke:none;fill:#00e000;fill-rule:evenodd" d="M13.579157,66.848053L13.86236,66.848053L13.862359,68.518951L13.579156,68.518951L13.579157,66.848053z"/>
    <path transform="matrix(-1,0,0,1,0,0)" style="stroke:none;fill:#00e000;fill-rule:evenodd" d="M12.689508,67.230377L12.355523,68.518951L12.064507,68.518951C11.938235,68.080261,11.820689,67.639053,11.711969,67.195709L11.346734,68.518951L11.054254,68.518951L11.565485,66.848053L11.861383,66.848053L12.199761,68.133698L12.264215,67.848541L12.530329,66.848053L12.824762,66.848053L13.347222,68.518951L13.071832,68.518951L12.689508,67.230377z"/>
    <path transform="matrix(-1,0,0,1,0,0)" style="stroke:none;fill:#00e000;fill-rule:evenodd" d="M14.338922,68.933014L14.338922,68.518951L14.130914,68.518951L14.130914,68.298737L14.338922,68.298737L14.338922,67.337311C14.312889,67.196609,14.342153,67.050819,14.420465,66.931061C14.573716,66.823212,14.767939,66.79364,14.946344,66.850983L14.905329,67.100983L14.835505,67.09317C14.760178,67.06498,14.674959,67.095947,14.635309,67.165924C14.621972,67.216698,14.617023,67.269318,14.620661,67.321686L14.62066,68.298737L14.905328,68.298737L14.905328,68.518951L14.62066,68.518951L14.62066,69.102936L14.338922,68.933014z"/>
    <path transform="matrix(-1,0,0,1,0,0)" style="stroke:none;fill:#00e000;fill-rule:evenodd" d="M15.758843,68.55069L15.656793,68.531647C15.329533,68.445473,15.103115,68.146873,15.108453,67.808502C15.062542,67.533401,15.136322,67.251442,15.31109,67.034088C15.584066,66.757721,16.020597,66.731438,16.324762,66.973053C16.454514,67.090157,16.537584,67.250229,16.558649,67.423737L16.27984,67.459869L16.259821,67.360748C16.236214,67.25267,16.170162,67.158363,16.076033,67.100243C15.981904,67.04213,15.868002,67.025322,15.760798,67.052643C15.544815,67.107719,15.395625,67.30542,15.40191,67.528229C15.355284,67.75042,15.400603,67.982483,15.527398,68.170807C15.660855,68.325424,15.882493,68.368942,16.064508,68.276276C16.166338,68.210533,16.235901,68.105209,16.256403,67.985748L16.531794,68.028229C16.499754,68.260498,16.335924,68.453278,16.11187,68.522369C15.997277,68.555374,15.877233,68.56501,15.758843,68.55069z"/>
    <path transform="matrix(-1,0,0,1,0,0)" style="stroke:none;fill:#00e000;fill-rule:evenodd" d="M9.708062,69.174713C9.382563,69.151505,9.127176,68.884705,9.118218,68.558502C9.133973,68.274925,9.341467,68.038803,9.62066,67.986725C9.795959,67.932762,9.973342,67.885849,10.152398,67.8461L10.241265,67.820709C10.379625,67.794579,10.496955,67.703583,10.556696,67.57608C10.601409,67.434006,10.547611,67.279358,10.424372,67.195709C10.097968,66.994621,9.675756,67.05069,9.413141,67.329987C9.359367,67.415848,9.326735,67.513237,9.317926,67.614166L9.02984,67.589264C9.031273,67.288383,9.211794,67.01722,9.488825,66.899811C9.863495,66.73703,10.295242,66.777756,10.632868,67.007721C10.879712,67.206734,10.938845,67.558807,10.770562,67.827545C10.60808,68.016594,10.381191,68.13839,10.133843,68.169342L9.794,68.251862C9.66793,68.267288,9.550928,68.32579,9.462945,68.417389C9.388393,68.526054,9.397035,68.671349,9.483941,68.770416C9.754771,68.992897,10.144652,68.984642,10.405816,68.750885C10.462877,68.672371,10.497015,68.57959,10.504449,68.482819L10.797418,68.504791C10.794422,68.772186,10.630855,69.011665,10.382867,69.111725C10.167787,69.193558,9.934571,69.215324,9.708062,69.174713z"/>
    <path transform="matrix(-1,0,0,1,0,0)" style="stroke:none;fill:#00e000;fill-rule:evenodd" d="M35.828232,82.01693L36.21788,82.01693L36.21788,82.464684L35.828232,82.464684L35.828232,82.01693z"/>
    <path transform="matrix(-1,0,0,1,0,0)" style="stroke:none;fill:#00e000;fill-rule:evenodd" d="M35.828232,79.291344L36.21788,79.291344L36.21788,81.590172L35.828232,81.590172L35.828232,79.291344z"/>
    <path transform="matrix(-1,0,0,1,0,0)" style="stroke:none;fill:#00e000;fill-rule:evenodd" d="M27.591415,79.291344L28.037216,79.291344L28.385849,80.252281L29.712997,80.252281L30.083115,79.291344L30.56163,79.291344L29.262802,82.464684L28.810165,82.464684L27.591415,79.291344zM29.068466,81.99398C29.225365,81.52227,29.397017,81.055527,29.583115,80.594566L28.506943,80.594566L28.855576,81.52523C28.928474,81.722542,28.985619,81.925323,29.026474,82.131676L29.068466,81.99398z"/>
    <path transform="matrix(-1,0,0,1,0,0)" style="stroke:none;fill:#00e000;fill-rule:evenodd" d="M37.529404,81.626305C37.076607,81.560043,36.726196,81.194748,36.678818,80.739586C36.613113,80.393219,36.664116,80.034836,36.823837,79.720543C37.115265,79.283401,37.675541,79.114868,38.159775,79.318687C38.54829,79.470375,38.803661,79.845955,38.801865,80.263023C38.844658,80.571945,38.78841,80.886513,38.64122,81.161461C38.403198,81.532211,37.96048,81.717308,37.529404,81.626305zM37.872665,81.305992C38.172607,81.22892,38.386246,80.963615,38.397568,80.654137C38.436878,80.400543,38.403526,80.141022,38.301376,79.905602C38.169827,79.645889,37.878208,79.508942,37.594345,79.57357C37.290791,79.650429,37.075718,79.92067,37.068954,80.233727C37.029469,80.485878,37.06284,80.744049,37.165146,80.977867C37.298973,81.235245,37.589748,81.370094,37.872665,81.305992z"/>
    <path transform="matrix(-1,0,0,1,0,0)" style="stroke:none;fill:#00e000;fill-rule:evenodd" d="M34.808701,81.326012C34.609764,81.568405,34.295429,81.683144,33.986626,81.628746C33.677822,81.574348,33.421619,81.359093,33.31749,81.063316C33.109787,80.571388,33.172043,80.007378,33.48204,79.572594C33.744118,79.252342,34.189857,79.150452,34.565048,79.325035C34.675591,79.385857,34.768589,79.474152,34.835068,79.581383L34.835068,79.291344L35.196396,79.291344L35.196396,82.464684L34.808701,82.464684L34.808701,81.326012zM34.339462,81.305992C34.57188,81.24128,34.748211,81.05175,34.796005,80.815269C34.879951,80.508247,34.860554,80.181961,34.740829,79.887047C34.628529,79.647118,34.364841,79.516899,34.106064,79.57357C33.817348,79.663727,33.619125,79.929337,33.614853,80.231773C33.577782,80.486488,33.607563,80.746437,33.701279,80.986168C33.809475,81.232185,34.077618,81.366562,34.339462,81.305992z"/>
    <path transform="matrix(-1,0,0,1,0,0)" style="stroke:none;fill:#00e000;fill-rule:evenodd" d="M32.326279,80.358727L32.322372,80.220055C32.335331,80.051804,32.278507,79.884933,32.162891,79.762062C32.047276,79.639191,31.884171,79.572327,31.715439,79.575035C31.602142,79.56691,31.489889,79.603195,31.403641,79.677094C31.31739,79.750999,31.26433,79.856361,31.25499,79.969566C31.245047,80.084518,31.240646,80.19989,31.241806,80.315269L31.241806,81.590172L30.852158,81.590172C30.846176,81.07653,30.846664,80.563255,30.853622,80.049644C30.80863,79.672104,31.066597,79.324715,31.441025,79.258629C31.79694,79.173782,32.168129,79.322304,32.367294,79.629234L32.367294,79.291344L32.715927,79.291344L32.715927,81.590172L32.326279,81.590172L32.326279,80.358727z"/>
    <path transform="matrix(-1,0,0,1,0,0)" style="stroke:none;fill:#00e000;fill-rule:evenodd" d="M36.606064,76.524254L36.486923,76.46566C36.382217,76.377144,36.297646,76.267265,36.238876,76.143394L36.238876,76.492027L35.88829,76.492027L35.88829,74.192711L36.277939,74.192711L36.277939,75.396324C36.261581,75.596176,36.304417,75.796761,36.400986,75.972496C36.50272,76.120422,36.691639,76.181061,36.860458,76.119957L37.003036,76.05648L37.137314,76.418297C36.983311,76.527336,36.790115,76.565865,36.606064,76.524254z"/>
    <path transform="matrix(-1,0,0,1,0,0)" style="stroke:none;fill:#00e000;fill-rule:evenodd" d="M27.989367,74.192711C28.485729,74.173683,28.982674,74.178078,29.478624,74.205894C29.748819,74.21154,30.004768,74.328293,30.186144,74.528648C30.468855,74.869568,30.451227,75.367744,30.145128,75.687828C30.04266,75.778969,29.920509,75.845139,29.788195,75.881187L29.892687,75.940758C30.20455,76.138916,30.319939,76.538483,30.161728,76.872398C30.013746,77.181808,29.695356,77.373764,29.352646,77.360191C28.89846,77.378983,28.443695,77.381104,27.989365,77.366539L27.989367,74.192711zM29.043564,76.992027L29.201767,76.989098C29.381931,77.012573,29.563816,76.957581,29.70079,76.838219C29.863178,76.646019,29.859226,76.364166,29.691513,76.176598C29.517933,76.055344,29.305073,76.004089,29.095322,76.033043L28.409286,76.033043L28.409286,76.992027L29.043564,76.992027zM29.143173,75.658531L29.285753,75.655113C29.504099,75.679993,29.72076,75.591667,29.859484,75.421227C29.99651,75.210426,29.978851,74.935066,29.816027,74.743492C29.643526,74.601997,29.420547,74.538261,29.199327,74.567223L28.409288,74.567223L28.409286,75.658531L29.143173,75.658531z"/>
    <path transform="matrix(-1,0,0,1,0,0)" style="stroke:none;fill:#00e000;fill-rule:evenodd" d="M38.821396,76.227867C38.622181,76.470024,38.3078,76.584564,37.999012,76.530083C37.69022,76.475601,37.434013,76.260399,37.329697,75.964684C37.122105,75.472748,37.184357,74.908775,37.494247,74.473961C37.756382,74.153824,38.202068,74.051949,38.577255,74.226402C38.688061,74.286865,38.781143,74.375237,38.847275,74.48275L38.847275,74.192711L39.208603,74.192711L39.208603,77.366539L38.821396,77.366539L38.821396,76.227867zM38.351669,76.207359C38.584351,76.143082,38.760872,75.953346,38.808212,75.716637C38.892166,75.409607,38.872772,75.083336,38.753036,74.788414C38.6408,74.548691,38.377373,74.418495,38.118759,74.474937C37.829849,74.564903,37.631378,74.830582,37.62706,75.133141C37.589993,75.387856,37.619774,75.647804,37.713486,75.887535C37.821686,76.133553,38.089825,76.267929,38.351669,76.207359z"/>
    <path transform="matrix(-1,0,0,1,0,0)" style="stroke:none;fill:#00e000;fill-rule:evenodd" d="M34.103134,76.523277L33.85997,76.46273C33.58189,76.370636,33.381248,76.126442,33.344833,75.835777L33.725693,75.784019L33.761337,75.896812C33.82024,76.087257,33.997547,76.216858,34.196884,76.215172C34.396729,76.254662,34.604362,76.208954,34.76915,76.089195C34.865665,75.965195,34.905006,75.806412,34.877548,75.651695C34.534958,75.565613,34.18726,75.50135,33.836533,75.459312L33.688095,75.405602C33.524471,75.338974,33.39407,75.20977,33.326527,75.046524C33.258987,74.88327,33.259995,74.699707,33.32872,74.536949C33.466019,74.263748,33.759899,74.105385,34.063583,74.140953C34.37833,74.14006,34.681534,74.260193,34.910263,74.476402L34.938095,74.324547L34.9879,74.192711L35.395126,74.192711L35.333603,74.327965C35.282337,74.517303,35.261894,74.713669,35.273056,74.909508L35.270126,75.795738C35.291927,75.977013,35.240402,76.160728,35.122211,76.299721C35.004017,76.438713,34.830971,76.519089,34.648544,76.526695C34.467449,76.550613,34.283916,76.549461,34.103134,76.523277zM34.877548,75.203941C34.900757,74.984123,34.819199,74.765503,34.655563,74.616936C34.491928,74.468361,34.266479,74.408218,34.049911,74.452477C33.854549,74.456558,33.697014,74.614525,33.693466,74.809898C33.700775,74.99765,33.84877,75.149857,34.03624,75.162437C34.169842,75.190918,34.304562,75.213882,34.440048,75.231285L34.612411,75.266441C34.702713,75.286293,34.791355,75.313065,34.877548,75.346519L34.877548,75.203941z"/>
    <path transform="matrix(-1,0,0,1,0,0)" style="stroke:none;fill:#00e000;fill-rule:evenodd" d="M31.654892,76.527672C31.202154,76.461235,30.85186,76.096062,30.804308,75.640953C30.739037,75.294724,30.790018,74.936653,30.949327,74.622398C31.24053,74.184952,31.800917,74.016182,32.285263,74.220055C32.67387,74.371979,32.929356,74.747635,32.927841,75.164879C32.970257,75.473701,32.913853,75.788025,32.766708,76.062828C32.52882,76.433723,32.085983,76.618874,31.654892,76.527672zM31.998154,76.207359L32.124619,76.166344C32.356285,76.047592,32.50795,75.815361,32.523544,75.555504C32.562248,75.301895,32.528919,75.042549,32.427353,74.806969C32.295589,74.547485,32.00415,74.410622,31.720324,74.474937C31.416447,74.551689,31.201094,74.822235,31.194445,75.135582C31.154856,75.387611,31.18841,75.645706,31.291124,75.879234C31.424694,76.136642,31.715342,76.27153,31.998154,76.207359z"/>
    <path transform="matrix(-1,0,0,1,0,0)" style="stroke:none;fill:#00e000;fill-rule:evenodd" d="M77.532181,79.507408L77.41304,79.448814C77.308044,79.36058,77.223419,79.250633,77.164993,79.126549L77.164993,79.474693L76.814407,79.474693L76.814407,77.175865L77.204056,77.175865L77.204056,78.379478C77.188133,78.579254,77.230759,78.779655,77.326614,78.95565C77.42849,79.103386,77.617264,79.163971,77.786087,79.103111L77.929153,79.039635L78.063431,79.401451C77.909416,79.510452,77.716225,79.548988,77.532181,79.507408z"/>
    <path transform="matrix(-1,0,0,1,0,0)" style="stroke:none;fill:#00e000;fill-rule:evenodd" d="M66.432571,77.175865C66.92907,77.156868,67.426231,77.16127,67.922318,77.189049C68.192444,77.194359,68.44838,77.311188,68.629349,77.511803C68.912521,77.852539,68.894882,78.351112,68.588333,78.670982C68.485809,78.762039,68.36367,78.828201,68.2314,78.864342L68.335892,78.923912C68.647881,79.122002,68.76329,79.521637,68.604935,79.855553C68.456688,80.164749,68.138496,80.356583,67.795853,80.343346C67.341667,80.362137,66.886902,80.364258,66.432571,80.349693L66.432571,77.175865zM67.486771,79.975182L67.644974,79.972252C67.82515,79.995926,68.007126,79.94091,68.143997,79.821373C68.306221,79.629181,68.302483,79.347565,68.135208,79.159752C67.961418,79.038544,67.748428,78.987305,67.538528,79.016197L66.852493,79.016197L66.852493,79.975182L67.486771,79.975182zM67.58638,78.641685L67.728958,78.638268C67.947281,78.663048,68.16391,78.574738,68.302689,78.404381C68.439972,78.193748,68.422508,77.918251,68.25972,77.726646C68.087013,77.585167,67.863907,77.521446,67.642532,77.550377L66.852493,77.550377L66.852493,78.641685L67.58638,78.641685z"/>
    <path transform="matrix(-1,0,0,1,0,0)" style="stroke:none;fill:#00e000;fill-rule:evenodd" d="M73.16597,80.044029L73.16597,79.474693L72.880325,79.474693L72.880325,79.171959L73.16597,79.171959L73.16597,77.849205C73.155876,77.69429,73.172058,77.538765,73.213821,77.389244C73.272743,77.268524,73.386436,77.183937,73.518997,77.162193C73.679497,77.13726,73.843239,77.143394,74.001419,77.18026L73.945267,77.524498L73.849564,77.513268C73.745941,77.474579,73.628769,77.517174,73.574173,77.613365C73.555618,77.683205,73.548691,77.75563,73.553665,77.827721L73.553665,79.171959L73.945267,79.171959L73.945267,79.474693L73.553665,79.474693L73.553665,80.277916L73.16597,80.044029z"/>
    <path transform="matrix(-1,0,0,1,0,0)" style="stroke:none;fill:#00e000;fill-rule:evenodd" d="M71.924759,80.044029L71.924759,79.474693L71.638626,79.474693L71.638626,79.171959L71.924759,79.171959L71.924759,77.849205C71.914955,77.694321,71.930962,77.538879,71.972122,77.389244C72.031044,77.268524,72.144737,77.183937,72.277298,77.162193C72.437958,77.137245,72.601868,77.143372,72.760208,77.18026L72.704056,77.524498L72.608353,77.513268C72.504585,77.474869,72.387474,77.517357,72.332474,77.613365C72.314613,77.683327,72.307693,77.755638,72.311966,77.827721L72.311966,79.171959L72.704056,79.171959L72.704056,79.474693L72.311966,79.474693L72.311966,80.277916L71.924759,80.044029z"/>
    <path transform="matrix(-1,0,0,1,0,0)" style="stroke:none;fill:#00e000;fill-rule:evenodd" d="M75.052689,79.50692L74.848099,79.446861C74.498665,79.291855,74.260254,78.960274,74.224564,78.579674C74.165413,78.247581,74.217239,77.905258,74.372025,77.605553C74.570915,77.287704,74.926865,77.103279,75.301224,77.124107C75.774544,77.089699,76.203377,77.404434,76.312454,77.866295L75.909622,77.9161L75.861282,77.801353C75.792976,77.651688,75.668159,77.535042,75.514015,77.477524C75.359879,77.420006,75.189163,77.426376,75.039505,77.494713C74.762711,77.63015,74.593163,77.917915,74.608841,78.22567L76.323196,78.22567C76.345932,78.506966,76.289803,78.788979,76.161087,79.040123C75.932304,79.419846,75.484192,79.608566,75.052689,79.50692zM75.425247,79.192467C75.719696,79.118805,75.923187,78.849854,75.914017,78.546471L74.630325,78.546471C74.628258,78.860115,74.848076,79.131874,75.155228,79.195396C75.244629,79.211304,75.336212,79.210312,75.425247,79.192467z"/>
    <path transform="matrix(-1,0,0,1,0,0)" style="stroke:none;fill:#00e000;fill-rule:evenodd" d="M70.063919,79.506432C69.837418,79.489838,69.626259,79.384697,69.476517,79.213951C69.389633,79.097351,69.331108,78.96209,69.305618,78.818932L69.686478,78.767174L69.722122,78.879967C69.780945,79.07048,69.95829,79.200111,70.157669,79.198326C70.357506,79.237694,70.565102,79.191994,70.729935,79.07235C70.826447,78.948349,70.865791,78.789566,70.838333,78.63485C70.49559,78.548721,70.14772,78.484467,69.796829,78.442467L69.64888,78.388756C69.485229,78.322151,69.354851,78.19294,69.287224,78.029709C69.219604,77.866486,69.220413,77.682922,69.289017,77.520103C69.426567,77.246872,69.720543,77.088562,70.024368,77.124107C70.339012,77.123016,70.642128,77.243172,70.87056,77.459557L70.89888,77.307213L70.948685,77.175865L71.355423,77.175865L71.2939,77.311119C71.242577,77.500435,71.22229,77.696846,71.233841,77.892662L71.230911,78.778893C71.252724,78.960106,71.201111,79.143738,71.082909,79.282646C70.964699,79.421562,70.791702,79.501892,70.609329,79.509361C70.428276,79.533821,70.244698,79.532837,70.063919,79.506432zM70.838333,78.187096L70.834427,78.066002C70.829849,77.728539,70.563576,77.452217,70.226517,77.435143C70.042511,77.391708,69.849174,77.450256,69.720169,77.588463C69.636528,77.703575,69.631691,77.857986,69.707962,77.978111C69.80571,78.088608,69.943039,78.155602,70.090286,78.164635L70.400833,78.214439C70.550247,78.237633,70.696877,78.276253,70.838333,78.329674L70.838333,78.187096z"/>
    <path transform="matrix(-1,0,0,1,0,0)" style="stroke:none;fill:#00e000;fill-rule:evenodd" d="M79.286087,78.13485L79.199661,77.87606L79.125931,77.610924L79.047318,77.883873C78.868553,78.417603,78.679665,78.948105,78.480911,79.474693L78.060989,79.474693L78.933548,77.171471C78.900314,77.005455,78.827927,76.849449,78.72261,76.716881C78.576241,76.613243,78.387978,76.590515,78.221146,76.656334L78.264603,76.290611C78.506226,76.182014,78.790932,76.246368,78.962357,76.448326C79.076164,76.605133,79.1651,76.778564,79.226028,76.962486L80.167435,79.474693L79.777786,79.474693L79.286087,78.13485z"/>
    <path transform="matrix(-1,0,0,1,0,0)" style="stroke:none;fill:#00e000;fill-rule:evenodd" d="M60.555344,131.350769L60.436203,131.292175C60.331207,131.203949,60.246578,131.093994,60.188156,130.96991L60.188156,131.318054L59.83757,131.318054L59.83757,129.019226L60.227219,129.019226L60.227219,130.222839C60.211292,130.422607,60.253922,130.623016,60.349777,130.799011C60.451653,130.946747,60.640427,131.007339,60.80925,130.946472L60.952316,130.882996L61.086594,131.244812C60.932571,131.35379,60.739388,131.392319,60.555344,131.350769z"/>
    <path transform="matrix(-1,0,0,1,0,0)" style="stroke:none;fill:#00e000;fill-rule:evenodd" d="M53.516769,131.346375C53.307808,131.299332,53.125885,131.171799,53.010422,130.991394L53.010422,131.318054L52.659348,131.318054L52.659348,129.019226L53.048996,129.019226L53.048996,130.275085C53.023392,130.491425,53.089046,130.708725,53.230148,130.874695C53.423264,131.04631,53.701988,131.081055,53.93132,130.962097C54.093781,130.831467,54.172802,130.623169,54.137863,130.417664L54.137863,129.019226L54.527512,129.019226C54.531189,129.532303,54.530869,130.045319,54.526535,130.558289C54.575397,130.936584,54.317402,131.286545,53.941574,131.351746C53.801022,131.378174,53.656609,131.376358,53.516769,131.346375z"/>
    <path transform="matrix(-1,0,0,1,0,0)" style="stroke:none;fill:#00e000;fill-rule:evenodd" d="M58.087082,131.354187C57.634201,131.287888,57.28368,130.922684,57.236008,130.467468C57.170624,130.121201,57.22179,129.763031,57.381516,129.448914C57.672649,129.011383,58.233116,128.84259,58.717453,129.04657C59.106102,129.198364,59.361496,129.574158,59.359543,129.991394C59.402283,130.300156,59.346035,130.614548,59.198898,130.889343C58.960876,131.260101,58.518158,131.44519,58.087082,131.354187zM58.430344,131.033875C58.730286,130.956802,58.943924,130.691498,58.955246,130.382019C58.99395,130.128418,58.960621,129.869064,58.859055,129.633484C58.727459,129.373825,58.435875,129.236893,58.152023,129.301453C57.848469,129.378311,57.633396,129.648544,57.626633,129.961609C57.58712,130.21376,57.620491,130.471939,57.722824,130.70575C57.856621,130.963165,58.147419,131.098022,58.430344,131.033875z"/>
    <path transform="matrix(-1,0,0,1,0,0)" style="stroke:none;fill:#00e000;fill-rule:evenodd" d="M55.723801,131.358582L55.561203,131.323914C55.391201,131.289124,55.242371,131.186768,55.150116,131.039795C55.057861,130.892838,55.030361,130.71431,55.072922,130.546082C55.15757,130.306076,55.367661,130.132401,55.619308,130.094421C55.787014,130.04303,55.956177,129.996628,56.126633,129.955261L56.240891,129.920593C56.32066,129.912842,56.394203,129.872452,56.441315,129.807678C56.488426,129.742905,56.504196,129.660492,56.486984,129.582214C56.43148,129.411209,56.272243,129.295135,56.092453,129.294617C55.87175,129.245804,55.641438,129.316025,55.485519,129.479675C55.423016,129.563538,55.383778,129.662399,55.37175,129.766296L54.986496,129.70575C55.018677,129.375061,55.253239,129.099014,55.574387,129.013855C55.936581,128.902084,56.330093,128.961411,56.643234,129.174988C56.903957,129.378403,56.972404,129.74408,56.802902,130.028015C56.682362,130.17897,56.510384,130.280518,56.319992,130.313171C56.161037,130.361404,56.001152,130.406677,55.8405,130.448914L55.668625,130.498718C55.595558,130.507599,55.52911,130.545746,55.485023,130.604675C55.440933,130.66362,55.423115,130.738129,55.435226,130.81073C55.493065,130.960159,55.641563,131.054794,55.801437,131.044128C55.992474,131.088104,56.192963,131.032181,56.333664,130.895691C56.384937,130.831482,56.417683,130.754501,56.428391,130.673035L56.80925,130.725281C56.794289,130.985718,56.621098,131.210892,56.373215,131.292175C56.164822,131.364456,55.942509,131.387177,55.723801,131.358582z"/>
    <path transform="matrix(-1,0,0,1,0,0)" style="stroke:none;fill:#00e000;fill-rule:evenodd" d="M50.893723,131.350281C50.441437,131.26123,50.103165,130.882462,50.065598,130.423035C50.006451,130.090942,50.05827,129.748611,50.213058,129.448914C50.411907,129.131012,50.767876,128.946579,51.142258,128.967468C51.615505,128.932922,52.044281,129.247772,52.153,129.709656L51.750656,129.75946L51.702316,129.644714C51.633995,129.495056,51.509155,129.378479,51.355026,129.320953C51.200893,129.263443,51.030197,129.26976,50.880539,129.338074C50.603687,129.473526,50.43401,129.7612,50.449387,130.069031L52.16423,130.069031C52.187027,130.350372,52.130711,130.632462,52.001633,130.883484C51.77317,131.263306,51.325108,131.452087,50.893723,131.350281zM51.266281,131.035828L51.393723,130.993347C51.619644,130.877975,51.760059,130.643448,51.755051,130.389832L50.471359,130.389832C50.468895,130.703613,50.688896,130.975586,50.996262,131.038757C51.085659,131.054657,51.17725,131.053665,51.266281,131.035828z"/>
    <path transform="matrix(-1,0,0,1,0,0)" style="stroke:none;fill:#00e000;fill-rule:evenodd" d="M48.194992,132.240417C47.826485,132.240387,47.487289,132.038742,47.311203,131.715027C47.139336,131.370972,47.254555,130.952438,47.578293,130.744812C47.864006,130.588577,48.174805,130.483658,48.49675,130.434753L48.657394,130.392761C48.869217,130.369202,49.061733,130.256683,49.186203,130.083679C49.275951,129.904968,49.238506,129.688629,49.093918,129.550476C48.913731,129.399185,48.681564,129.324371,48.446945,129.34198C48.139145,129.320923,47.839764,129.447418,47.640305,129.6828C47.566231,129.800751,47.52137,129.934662,47.509445,130.073425L47.113449,130.038757C47.115406,129.625046,47.36348,129.252167,47.744308,129.090515C48.216835,128.892426,48.753445,128.917175,49.205734,129.157898C49.587921,129.383362,49.742077,129.858398,49.565109,130.26532C49.407219,130.538315,49.137608,130.727997,48.827316,130.784363C48.603527,130.841629,48.388546,130.895462,48.16423,130.950378L47.981613,131.007507C47.871101,131.024887,47.771839,131.086258,47.708969,131.178757C47.646099,131.271255,47.625557,131.386139,47.65007,131.4953C47.728718,131.724915,47.948521,131.876282,48.191086,131.867859C48.444099,131.918472,48.707329,131.866425,48.922043,131.723328C49.053154,131.6073,49.132301,131.443558,49.141769,131.268738L49.544113,131.299011C49.537216,131.721161,49.244839,132.085327,48.834152,132.183289C48.626205,132.240265,48.409748,132.259613,48.194992,132.240417z"/>
    <path transform="matrix(-1,0,0,1,0,0)" style="stroke:none;fill:#00e000;fill-rule:evenodd" d="M42.092072,159.773315L41.972931,159.714722C41.867935,159.626495,41.783306,159.516541,41.724884,159.392456L41.724884,159.740601L41.374298,159.740601L41.374298,157.441772L41.763947,157.441772L41.763947,158.645386C41.747589,158.845245,41.790424,159.045822,41.886993,159.221558C41.988728,159.369492,42.177647,159.430115,42.346466,159.369019L42.489044,159.305542L42.623322,159.667358C42.469307,159.776367,42.276119,159.814896,42.092072,159.773315z"/>
    <path transform="matrix(-1,0,0,1,0,0)" style="stroke:none;fill:#00e000;fill-rule:evenodd" d="M36.17215,160.241089L37.942657,160.241089L37.782501,160.066772C37.169243,159.33403,36.570847,158.588593,35.988068,157.831421L35.988068,157.441772L38.496857,157.441772L38.496857,157.816284L36.47049,157.816284L36.663361,158.039429L38.445099,160.241089L38.445099,160.615601L36.17215,160.615601L36.17215,160.241089z"/>
    <path transform="matrix(-1,0,0,1,0,0)" style="stroke:none;fill:#00e000;fill-rule:evenodd" d="M31.81424,157.441772L32.234161,157.441772L32.234161,158.850952C32.474186,158.872375,32.71595,158.867294,32.954865,158.835815C33.189548,158.749771,33.382874,158.577576,33.495392,158.35437C33.697212,158.054077,33.893028,157.749847,34.082794,157.441772L34.611115,157.441772C34.392754,157.821198,34.15192,158.187256,33.889923,158.537964C33.777878,158.688995,33.628918,158.808701,33.457306,158.88562L33.670685,158.927612C34.116302,159.00769,34.415794,159.430939,34.343048,159.877808C34.3064,160.269165,33.987106,160.574707,33.594513,160.594116C33.470764,160.609421,33.346149,160.616592,33.221466,160.615601L31.81424,160.615601L31.81424,157.441772zM33.238556,160.264526L33.403107,160.255737C33.538597,160.256653,33.669552,160.204849,33.766171,160.109894C33.862785,160.014923,33.916828,159.884872,33.918243,159.74939C33.914249,159.462219,33.680531,159.230896,33.393341,159.229858C33.007603,159.201202,32.620518,159.196136,32.234161,159.214722L32.234161,160.264526L33.238556,160.264526z"/>
    <path transform="matrix(-1,0,0,1,0,0)" style="stroke:none;fill:#00e000;fill-rule:evenodd" d="M29.240021,159.041382L29.240021,160.615601L28.820099,160.615601L28.820099,157.441772L29.240021,157.441772L29.240021,158.541382L29.759552,159.048218L30.889435,157.441772L31.443634,157.441772L30.053986,159.329468L31.38504,160.615601L30.815704,160.615601L29.240021,159.041382z"/>
    <path transform="matrix(-1,0,0,1,0,0)" style="stroke:none;fill:#00e000;fill-rule:evenodd" d="M26.794708,158.249878L26.679474,157.898804L26.617462,158.094116C26.342499,158.935867,26.06189,159.777328,25.776642,160.615601L25.144318,160.615601L25.144318,157.441772L25.549103,157.441772L25.549103,160.143433L26.467072,157.441772L26.845978,157.441772L27.768341,160.098022L27.768341,157.441772L28.173126,157.441772L28.173126,160.615601L27.608185,160.615601L26.794708,158.249878z"/>
    <path transform="matrix(-1,0,0,1,0,0)" style="stroke:none;fill:#00e000;fill-rule:evenodd" d="M43.569611,159.776733C43.116718,159.710617,42.766254,159.345261,42.719025,158.890015C42.653152,158.543808,42.704163,158.185532,42.864044,157.87146C43.155174,157.433929,43.715645,157.265137,44.199982,157.469116C44.588631,157.620911,44.844025,157.996719,44.842072,158.41394C44.884811,158.722702,44.828564,159.037094,44.681427,159.31189C44.443405,159.682648,44.000687,159.867737,43.569611,159.776733zM43.912872,159.456421C44.212814,159.379349,44.426453,159.114044,44.437775,158.804565C44.477085,158.55098,44.443733,158.291443,44.341583,158.05603C44.210033,157.796326,43.918419,157.659378,43.634552,157.723999C43.330997,157.800858,43.115925,158.071106,43.109161,158.384155C43.069649,158.636307,43.10302,158.894485,43.205353,159.128296C43.339149,159.385712,43.629948,159.520569,43.912872,159.456421z"/>
    <path transform="matrix(-1,0,0,1,0,0)" style="stroke:none;fill:#00e000;fill-rule:evenodd" d="M39.612579,159.772827L39.40799,159.712769C39.058556,159.557755,38.820145,159.226181,38.784454,158.845581C38.725098,158.513443,38.777107,158.171005,38.932404,157.87146C39.130978,157.553528,39.486847,157.369034,39.861115,157.390015C40.334438,157.355606,40.763264,157.670334,40.872345,158.132202L40.469513,158.182007L40.421173,158.067261C40.352867,157.917587,40.228046,157.800949,40.07391,157.743439C39.919769,157.685913,39.749054,157.692276,39.599396,157.76062C39.322598,157.896057,39.153053,158.183823,39.168732,158.491577L40.883087,158.491577C40.905823,158.772873,40.849693,159.054886,40.720978,159.30603C40.492199,159.68576,40.044086,159.874481,39.612579,159.772827zM39.985626,159.458374C40.279816,159.38443,40.483025,159.115585,40.473907,158.812378L39.190216,158.812378C39.188148,159.126022,39.407967,159.397781,39.715118,159.461304C39.80468,159.477203,39.896431,159.476212,39.985626,159.458374z"/>
</svg>
